<svg xmlns="http://www.w3.org/2000/svg" xmlns:xlink="http://www.w3.org/1999/xlink" width="100px"   viewBox="0 0 1904.26 747.84"><defs><style>.cls-1{fill:#0c0d0c;}.cls-2{clip-path:url(#clip-path);}.cls-3{clip-path:url(#clip-path-2);}.cls-4{clip-path:url(#clip-path-3);}.cls-5{fill:#fff;stroke:#fff;stroke-width:1.83px;}</style><clipPath id="clip-path" transform="translate(110.73 73)"><ellipse class="cls-1" cx="61.35" cy="470.44" rx="61.35" ry="66.76"/></clipPath><clipPath id="clip-path-2" transform="translate(110.73 73)"><ellipse class="cls-1" cx="284.37" cy="66.76" rx="61.35" ry="66.76"/></clipPath><clipPath id="clip-path-3" transform="translate(110.73 73)"><ellipse class="cls-1" cx="517.99" cy="464.03" rx="61.35" ry="66.76"/></clipPath><image id="image" width="1080" height="1080" xlink:href="./1.png"/></defs><g id="Layer_2" data-name="Layer 2"><g id="Layer_1-2" data-name="Layer 1"><ellipse class="cls-1" cx="172.08" cy="543.44" rx="61.35" ry="66.76"/><g class="cls-2"><use transform="translate(0 403.68) scale(0.32)" xlink:href="#image"/></g><ellipse class="cls-1" cx="395.1" cy="139.76" rx="61.35" ry="66.76"/><g class="cls-3"><use transform="translate(223.02) scale(0.32)" xlink:href="#image"/></g><ellipse class="cls-1" cx="628.72" cy="537.03" rx="61.35" ry="66.76"/><g class="cls-4"><use transform="translate(456.64 397.27) scale(0.32)" xlink:href="#image"/></g><path class="cls-1" d="M478.2,257.75c0,167.68-139.74,298.1-288.79,197.18,33.64,51.75,132.9,132.28,260.84,40.37-6.21-32.61-2.48-99.06,62.11-104C513.91,357.11,509.25,282.59,478.2,257.75Z" transform="translate(110.73 73)"/><path class="cls-1" d="M442.5,361.81c14-201.89-198.73-223.63-313.63-156.81,15-25.37,55.28-78.92,96.27-90.1,18.63,18.63,67.69,45.33,114.89,3.1C399,132,512.06,224,442.5,361.81Z" transform="translate(110.73 73)"/><path class="cls-1" d="M237.52,183.22C52.74,274.83,145.9,475.11,260.81,538.77c-30.54,1.55-99.69-5-132-43.47C134.51,467.35,131,409,71.37,399,63.63,330.2,86,190.67,237.52,183.22Z" transform="translate(110.73 73)"/><path d="M593.09,382.68H548.43V136.37h44.66Zm298.35-19.07a21.19,21.19,0,0,1-1.89,8.93,22.17,22.17,0,0,1-4.81,7.22,21.45,21.45,0,0,1-7,4.63,22.47,22.47,0,0,1-8.76,1.72,24.82,24.82,0,0,1-8.42-1.55,19.63,19.63,0,0,1-7.38-5L690,209.2V382.68H645.31V155.43a21.31,21.31,0,0,1,3.78-12.36,24.27,24.27,0,0,1,10-8.42,22.18,22.18,0,0,1,13.05-1.2,20.73,20.73,0,0,1,11.51,6.18L846.78,309.85V136.37h44.66Zm298.18,0a21.19,21.19,0,0,1-1.89,8.93,22.17,22.17,0,0,1-4.81,7.22,21.66,21.66,0,0,1-7,4.63,22.47,22.47,0,0,1-8.76,1.72,24.77,24.77,0,0,1-8.42-1.55,19.66,19.66,0,0,1-7.39-5L988.14,209.2V382.68H943.48V155.43a21.31,21.31,0,0,1,3.78-12.36,24.36,24.36,0,0,1,10-8.42,22.17,22.17,0,0,1,13-1.2,20.76,20.76,0,0,1,11.51,6.18L1145,309.85V136.37h44.66Zm293.71,19.07h-44.66V322.21h-157v60.47H1237V259.52q0-27,9.27-49.64a115.89,115.89,0,0,1,25.76-39,117.26,117.26,0,0,1,39-25.42q22.5-9.1,49.12-9.1h100.66a22.47,22.47,0,0,1,8.76,1.72,22,22,0,0,1,12,12,22.47,22.47,0,0,1,1.72,8.76ZM1281.68,277.56h157V181h-78.5q-2.06,0-8.75.68a83.92,83.92,0,0,0-15.29,2.92,97.45,97.45,0,0,0-18.21,7.39,64.24,64.24,0,0,0-17.69,13.74,71.62,71.62,0,0,0-13.4,22q-5.14,13-5.15,1.77Zm511.85,105.12h-63.38L1629.67,282h-31.43V237h31.43l100.48-100.65h63.38L1666.94,259.52Zm-213.16,0h-44.65V136.37h44.65Z" transform="translate(110.73 73)"/><path class="cls-1" d="M308.5,308.11l-88.4-66.59-2.72,138.62,74.37,54.52,16.75-12.07Z" transform="translate(110.73 73)"/><path class="cls-1" d="M323.29,407V301.88l-20.64-16.75,59.19-43.61v139Z" transform="translate(110.73 73)"/><path class="cls-5" d="M255.93,363.4V314.72l13.24,11.68v47.9Z" transform="translate(110.73 73)"/></g></g></svg>
