<svg xmlns="http://www.w3.org/2000/svg" viewBox="0 0 263 270.81"><g id="Layer_2" data-name="Layer 2"><g id="Layer_1-2" data-name="Layer 1"><path d="M143,1.63V36.81H109.81C121.13,25.34,132,13.42,143,1.63Zm36,5,4.58,1.58L167,18.07ZM89.18,10.81h7.39l17.2,18.82-8,8.18H89.18ZM87,12.15v7.66H78.65Zm4.22,27.66H142L127.82,78.48ZM143,45.71V99.83l-16.53-9Q134.73,68.24,143,45.71ZM145,0l35.7,1.16L145,35.31Z"/><g id="SvgjsG1605"><path d="M11.72,130.81,18,135.56v54.25H39v-59Zm3.51-21H39V54.63l-4-4.82L58,50V211.81l-42.77-.15A15,15,0,0,1,0,196.41V125.06a15,15,0,0,1,15.23-15.25Zm63.49,21L85,135.56v54.25h21v-59Zm3.28-22h43v162H106v-60H82.26A15.26,15.26,0,0,1,67,195.55V124.09a14.89,14.89,0,0,1,15-15.28Zm66.87,22,6.13,4.82v55.18h21v-60ZM195,125v71.46a15.52,15.52,0,0,1-15.35,15.32H155v59H137V114.43l-3.84-4.62h46.65A15.25,15.25,0,0,1,195,125Zm21.72,5.78,6.28,4.75v54.25h21v-59ZM263,125v71.6a15.37,15.37,0,0,1-15.45,15.22H204V55.58l-3.9-4.77H223v59h24.59A15,15,0,0,1,263,125Z"/></g></g></g></svg>
